# xmcd CD database file
#
# Track frame offsets:
#	150
#	22411
#	42272
#	56823
#	80449
#	94488
#	131680
#	188788
#	213205
#	229978
#	246833
#	265648
#	287567
#	316415
#
# Disc length: 4456 seconds
#
# Revision: 0
# Processed by: cddbd v1.5.2PL0 Copyright (c) Steve Scherf et al.
# Submitted via: CDex 1.72
#
DISCID=ce11660e
DTITLE=Guy Forsyth - Red Dress
DYEAR=2015
DGENRE=Blues
TTITLE0=Red Dress
TTITLE1=High Temperature
TTITLE2=Up The Line
TTITLE3=Speedo
TTITLE4=It Ain't Right
TTITLE5=My Babe
TTITLE6=Play to Lose
TTITLE7=Smoking Cigarettes
TTITLE8=Liar
TTITLE9=Sleeping Double
TTITLE10=One time Around
TTITLE11=Sloppy Drunk
TTITLE12=I'm A Stranger
TTITLE13=Red Headed Woman
EXTD=YEAR: 2015
EXTT0=
EXTT1=
EXTT2=
EXTT3=
EXTT4=
EXTT5=
EXTT6=
EXTT7=
EXTT8=
EXTT9=
EXTT10=
EXTT11=
EXTT12=
EXTT13=
PLAYORDER=
